<?xml version="1.0" encoding="UTF-8" standalone="no"?>
<svg
   width="200"
   height="200"
   viewBox="0 0 200 200"
   version="1.1"
   id="svg1"
   xmlns="http://www.w3.org/2000/svg">
  <!-- White background -->
  <rect width="200" height="200" fill="white"/>
  
  <!-- Logo centered and scaled with top/bottom padding -->
  <g transform="translate(100,100) scale(2.8) translate(-5.495,-26.174)">
    <g id="layer2" style="opacity:1" transform="translate(-101.69352,-121.93532)">
      <g id="g3">
        <circle
           style="fill:#272579;fill-opacity:1;stroke:none;stroke-width:0.264999;stroke-linecap:round;stroke-opacity:1"
           id="path1"
           cx="107.1887"
           cy="126.7775"
           r="4.8421822" />
        <path
           id="path2"
           style="fill:#272579;fill-opacity:1;stroke:none;stroke-width:0.264999;stroke-linecap:round;stroke-opacity:1"
           d="m 101.76071,133.44974 10e-4,5.1e-4 c 2.25877,14.16162 2.92455,27.75558 -0.0682,40.82903 h 5.36505 l 5.2e-4,-0.002 h 0.26458 l -0.005,0.005 h 5.36505 c -2.99279,-13.07345 -2.32701,-26.66741 -0.0682,-40.82903 -1.76699,0.0387 -3.23238,0.4997 -4.41162,1.36116 l 0.007,-0.0124 c -0.006,0.007 -0.0118,0.0131 -0.0176,0.0196 -0.21872,0.16044 -0.42767,0.33443 -0.62632,0.52297 -0.22939,0.11097 -0.47423,0.13279 -0.74208,0.0114 -3.5e-4,-1.6e-4 -6.7e-4,-3.6e-4 -10e-4,-5.2e-4 -0.20562,-0.1964 -0.42235,-0.37696 -0.64957,-0.54312 -0.008,-0.009 -0.0151,-0.0175 -0.0227,-0.0269 l 0.009,0.0171 c -1.17731,-0.85621 -2.63892,-1.31479 -4.40025,-1.3534 z" />
      </g>
    </g>
  </g>
</svg>